# xmcd CD database file generated by OrangeCD 6.1
#
# Track frame offsets:
#	150
#	16090
#	33910
#	46995
#	64682
#	85187
#	99705
#	113915
#	131242
#	143865
#
# Disc length: 2092 seconds
#
# Revision: 4
# Processed by: cddbd v1.5.2PL0 Copyright (c) Steve Scherf et al.
# Submitted via: OrangeCD 6.1
#
DISCID=82082a0a
DTITLE=Suzy Bogguss - Greatest Hits
DYEAR=1994
DGENRE=Country
TTITLE0=Somewhere Between
TTITLE1=Someday Soon
TTITLE2=Outbound Plane
TTITLE3=Cross My Broken Heart
TTITLE4=Letting Go
TTITLE5=Heartache
TTITLE6=Drive South
TTITLE7=Aces
TTITLE8=Hopelessly Yours (Duet With Lee Greenwood)
TTITLE9=I Want To Be A Cowboy's Sweetheart
EXTD=
EXTT0=
EXTT1=
EXTT2=
EXTT3=
EXTT4=
EXTT5=
EXTT6=
EXTT7=
EXTT8=
EXTT9=
PLAYORDER=
